<svg xmlns="http://www.w3.org/2000/svg" xmlns:xlink="http://www.w3.org/1999/xlink" width="390" height="520" viewBox="0 0 390 520"><rect width="390" height="520" rx="24" fill="#f5f5f5"/>
  <text x="195" y="56" font-family="system-ui,-apple-system,sans-serif" font-size="14" font-weight="600" fill="#777777" text-anchor="middle">Scroll down and choose</text>
  <rect x="40" y="80" width="310" height="400" rx="24" fill="#ffffff" stroke="#e0e0e0" stroke-width="1.5"/>
  <g transform="translate(72 133)"><path d="M-8 -6h16v12h-16z" fill="none" stroke="#777777" stroke-width="2"/></g><text x="96" y="139" font-family="system-ui,-apple-system,sans-serif" font-size="15" font-weight="600" fill="#777777" text-anchor="start">Add Bookmark to…</text>
  <g transform="translate(72 189)"><path d="M0 -7l2 5 5 0 -4 3 2 5 -5 -3 -5 3 2 -5 -4 -3 5 0z" fill="none" stroke="#777777" stroke-width="1.6" stroke-linejoin="round"/></g><text x="96" y="195" font-family="system-ui,-apple-system,sans-serif" font-size="15" font-weight="600" fill="#777777" text-anchor="start">Add to Favourites</text>
  <g transform="translate(72 245)"><rect x="-7" y="-7" width="14" height="14" rx="2" fill="none" stroke="#777777" stroke-width="2"/></g><text x="96" y="251" font-family="system-ui,-apple-system,sans-serif" font-size="15" font-weight="600" fill="#777777" text-anchor="start">Add to Quick Note</text>
  <g transform="translate(72 301)"><circle cx="-2" cy="-2" r="5" fill="none" stroke="#777777" stroke-width="2"/><path d="M2 2l5 5" stroke="#777777" stroke-width="2" stroke-linecap="round"/></g><text x="96" y="307" font-family="system-ui,-apple-system,sans-serif" font-size="15" font-weight="600" fill="#777777" text-anchor="start">Find on Page</text>
  <rect x="56" y="340" width="278" height="46" rx="12" fill="#58cc02" fill-opacity="0.12" stroke="#58cc02" stroke-width="3"/><g transform="translate(72 363)"><rect x="-8" y="-8" width="16" height="16" rx="4" fill="none" stroke="#58cc02" stroke-width="2"/><path d="M0 -4v8 M-4 0h8" stroke="#58cc02" stroke-width="2" stroke-linecap="round"/></g><text x="96" y="369" font-family="system-ui,-apple-system,sans-serif" font-size="15" font-weight="700" fill="#1a1a1a" text-anchor="start">Add to Home Screen</text></svg>
