<svg xmlns="http://www.w3.org/2000/svg" xmlns:xlink="http://www.w3.org/1999/xlink" width="390" height="520" viewBox="0 0 390 520"><rect width="390" height="520" rx="24" fill="#0f0f0f"/>
  <text x="195" y="60" font-family="system-ui,-apple-system,sans-serif" font-size="14" font-weight="600" fill="#b0b0b0" text-anchor="middle">Open the browser menu</text>
  <rect x="70" y="86" width="250" height="380" rx="20" fill="#1a1a1a" stroke="#333333" stroke-width="1.5"/>
  <rect x="80" y="98" width="230" height="44" rx="12" fill="#58cc02" fill-opacity="0.12" stroke="#58cc02" stroke-width="3"/>
  <rect x="88" y="106" width="26" height="26" rx="7" fill="#242424"/><path d="M101 111v10 M96 116l5 -5 5 5 M94 121v6h14v-6" fill="none" stroke="#f5f5f5" stroke-width="2" stroke-linecap="round" stroke-linejoin="round"/><text x="128" y="126" font-family="system-ui,-apple-system,sans-serif" font-size="15" font-weight="600" fill="#f5f5f5" text-anchor="start">Share</text>
  <rect x="88" y="164" width="26" height="26" rx="7" fill="#242424"/><text x="128" y="184" font-family="system-ui,-apple-system,sans-serif" font-size="15" font-weight="600" fill="#b0b0b0" text-anchor="start">Add to Bookmarks</text>
  <rect x="88" y="218" width="26" height="26" rx="7" fill="#242424"/><text x="128" y="238" font-family="system-ui,-apple-system,sans-serif" font-size="15" font-weight="600" fill="#b0b0b0" text-anchor="start">Add Bookmark to…</text>
  <rect x="88" y="270" width="214" height="1.5" fill="#333333"/>
  <rect x="88" y="292" width="26" height="26" rx="7" fill="#242424"/><text x="128" y="312" font-family="system-ui,-apple-system,sans-serif" font-size="15" font-weight="600" fill="#b0b0b0" text-anchor="start">New Tab</text>
  <rect x="88" y="346" width="26" height="26" rx="7" fill="#242424"/><text x="128" y="366" font-family="system-ui,-apple-system,sans-serif" font-size="15" font-weight="600" fill="#b0b0b0" text-anchor="start">New Private Tab</text>
  <rect x="88" y="390" width="214" height="1.5" fill="#333333"/>
  <rect x="120" y="405" width="26" height="26" rx="7" fill="#242424"/>
  <rect x="240" y="405" width="26" height="26" rx="7" fill="#242424"/>
  <text x="100" y="450" font-family="system-ui,-apple-system,sans-serif" font-size="13" font-weight="600" fill="#b0b0b0" text-anchor="start">Bookmarks</text>
  <text x="230" y="450" font-family="system-ui,-apple-system,sans-serif" font-size="13" font-weight="600" fill="#b0b0b0" text-anchor="start">All Tabs</text>
</svg>
